<?xml version="1.0" standalone="no"?>
<!DOCTYPE svg PUBLIC "-//W3C//DTD SVG 20010904//EN"
 "http://www.w3.org/TR/2001/REC-SVG-20010904/DTD/svg10.dtd">
<svg version="1.0" xmlns="http://www.w3.org/2000/svg"
 width="2000.000000pt" height="2000.000000pt" viewBox="0 0 2000.000000 2000.000000"
 preserveAspectRatio="xMidYMid meet">
<metadata>
Created by potrace 1.16, written by Peter Selinger 2001-2019
</metadata>
<g transform="translate(0.000000,2000.000000) scale(0.100000,-0.100000)"
fill="#000000" stroke="none">
<path d="M6971 16120 c-22 -27 -128 -165 -237 -306 -110 -141 -255 -329 -324
-418 -69 -88 -220 -282 -335 -431 -115 -148 -270 -349 -345 -445 -124 -159
-338 -435 -981 -1265 -123 -159 -292 -377 -374 -483 -83 -106 -151 -199 -153
-205 -1 -7 27 -22 63 -35 36 -13 63 -28 60 -33 -4 -5 0 -6 8 -3 34 13 302
-155 292 -183 -2 -7 2 -10 9 -7 11 4 47 -32 167 -162 30 -32 38 -51 17 -38 -7
4 -8 3 -4 -5 4 -6 11 -9 16 -6 12 7 102 -146 95 -163 -3 -7 -1 -11 4 -8 9 6
40 -60 60 -129 7 -22 16 -49 21 -60 19 -42 50 -239 50 -318 0 -101 -23 -259
-51 -352 -24 -78 -68 -184 -84 -200 -9 -10 -64 -47 -120 -82 -98 -61 -308
-136 -428 -152 -99 -14 -273 -14 -357 -1 -171 27 -385 114 -513 208 -109 80
-256 238 -323 347 -62 102 -126 248 -144 327 -34 155 -39 193 -40 283 0 150
40 374 79 440 3 6 6 15 7 21 1 5 11 29 22 52 l20 42 -21 -12 c-39 -20 -191
-181 -238 -253 -146 -220 -210 -422 -211 -671 l0 -124 -37 -32 c-105 -95 -183
-222 -217 -358 -23 -91 -15 -270 15 -360 34 -98 97 -197 171 -270 125 -122
256 -179 431 -188 135 -6 231 14 345 72 l82 43 171 -302 171 -301 0 -887 0
-886 22 -15 c30 -21 71 -20 91 2 16 17 17 88 17 823 l0 804 34 55 c18 30 106
184 195 341 l162 286 87 -20 c116 -25 330 -19 440 12 210 61 384 184 516 366
l51 70 3 -657 2 -656 123 -70 c67 -38 167 -95 222 -127 55 -32 119 -68 141
-81 23 -12 87 -50 143 -83 55 -34 102 -61 105 -61 3 0 42 -22 88 -50 46 -27
86 -50 91 -50 4 0 7 16 7 35 0 25 -6 38 -22 48 -42 26 -212 124 -368 212 -85
49 -166 96 -180 105 -14 9 -56 34 -95 55 -38 21 -97 54 -130 74 l-60 36 -3
285 c-1 157 0 290 2 297 4 8 68 -24 188 -94 101 -58 210 -121 243 -140 33 -19
66 -39 73 -45 6 -6 12 -7 12 -2 0 5 4 4 8 -2 4 -6 32 -25 62 -42 30 -17 102
-58 160 -91 97 -57 105 -60 108 -40 2 11 1 26 -1 33 -3 7 -113 75 -244 151
-131 76 -274 159 -318 185 -45 27 -103 60 -130 75 -28 15 -76 43 -108 62 l-58
35 1 315 c1 282 -1 317 -16 334 -16 17 -15 22 5 71 11 29 30 89 41 132 11 44
21 81 23 82 1 2 90 -48 197 -110 446 -258 727 -420 886 -512 93 -53 212 -122
264 -152 52 -30 183 -105 290 -167 107 -62 422 -244 699 -404 277 -160 508
-291 512 -291 5 0 71 44 146 97 76 53 170 118 208 144 98 67 71 35 500 588 44
57 94 121 110 142 200 257 483 620 695 894 63 81 135 173 160 204 25 31 75 94
110 141 36 46 73 94 83 105 9 12 39 49 65 83 85 110 303 391 578 742 148 190
281 361 296 380 14 19 81 105 148 190 67 85 147 188 177 228 30 39 58 72 61
72 7 0 163 -35 560 -124 111 -25 293 -67 405 -92 214 -48 503 -113 752 -169
83 -19 191 -43 240 -55 50 -12 131 -30 180 -40 50 -11 170 -37 267 -60 98 -22
184 -40 191 -40 8 0 83 39 166 86 l151 86 -417 235 c-230 129 -456 256 -503
283 -47 26 -440 247 -875 490 -1400 784 -1698 951 -1810 1015 -60 34 -317 178
-570 320 -253 141 -475 266 -494 276 -18 11 -99 35 -180 54 -80 18 -330 77
-556 130 -225 53 -513 120 -640 150 -126 30 -376 88 -555 130 -179 42 -469
110 -644 150 -175 41 -334 79 -353 84 -32 9 -35 8 -72 -39z m-3372 -5885 c30
-8 85 -17 122 -21 36 -3 72 -10 78 -13 8 -5 11 -68 9 -217 l-3 -209 -124 220
c-69 121 -131 228 -139 238 -18 21 -13 21 57 2z m578 -51 c67 -34 71 -39 61
-58 -39 -73 -281 -493 -289 -500 -5 -6 -9 101 -9 282 l0 292 23 5 c22 5 71 10
117 13 14 1 57 -14 97 -34z"/>
<path d="M15374 12749 c-47 -46 -106 -109 -129 -140 -56 -71 -118 -185 -110
-199 4 -6 1 -9 -5 -8 -15 4 -55 -94 -85 -206 -30 -110 -49 -280 -42 -362 6
-61 6 -61 -30 -90 -90 -72 -186 -224 -219 -346 -19 -72 -18 -254 2 -332 19
-75 72 -185 119 -248 46 -63 151 -148 228 -185 93 -46 162 -64 267 -70 124 -7
218 13 335 71 49 24 90 44 91 43 1 -1 79 -137 173 -302 l171 -301 0 -118 0
-118 -42 24 c-24 14 -290 168 -593 343 -302 174 -555 320 -562 322 -6 3 -21
-5 -32 -16 l-21 -21 0 -1545 0 -1544 -44 -20 c-24 -10 -47 -27 -50 -37 -11
-35 -15 -558 -4 -577 14 -26 85 -57 133 -57 55 0 107 16 133 40 22 20 22 25
22 305 l0 283 -31 26 c-17 14 -39 26 -50 26 -19 0 -19 27 -19 1510 0 1436 1
1510 18 1501 9 -6 121 -71 247 -144 l230 -133 3 -107 c1 -59 1 -107 -2 -107
-6 0 -171 96 -199 115 -31 21 -83 19 -107 -5 -20 -20 -20 -33 -20 -660 0 -615
1 -642 19 -679 20 -39 37 -52 131 -106 100 -58 833 -481 960 -555 264 -154
366 -210 383 -210 10 0 29 11 42 25 l25 24 0 628 c0 383 -4 642 -10 664 -15
52 -47 78 -245 191 l-180 104 -3 107 c-1 59 0 107 3 107 4 0 48 -24 98 -54
351 -206 361 -210 373 -161 4 15 1 32 -6 40 -7 8 -115 74 -241 146 l-229 130
0 79 0 78 194 338 c114 200 199 338 207 337 8 0 57 -9 109 -18 287 -52 588 40
803 244 187 178 287 413 287 677 0 233 -73 437 -218 607 -87 102 -223 203
-344 254 -24 11 -26 10 -23 -9 3 -11 7 -23 11 -27 4 -3 4 2 1 12 -9 25 8 21
20 -5 89 -191 112 -476 57 -708 -8 -36 -18 -72 -21 -80 -3 -8 -7 -20 -8 -25
-2 -6 -16 -44 -32 -85 -27 -67 -36 -79 -89 -117 -132 -94 -351 -180 -517 -203
-381 -50 -768 89 -1034 373 -169 181 -271 391 -313 642 -12 71 -12 278 0 355
14 84 55 221 87 288 14 29 23 56 19 59 -3 3 -44 -32 -92 -78z m564 -2034 c34
-8 94 -18 132 -21 l70 -7 0 -213 c0 -118 -2 -214 -4 -214 -2 0 -57 93 -122
208 -64 114 -126 219 -136 235 -22 31 -23 31 60 12z m491 -347 c-83 -145 -152
-265 -155 -267 -2 -2 -4 129 -4 292 l0 297 38 1 c20 0 55 4 77 8 35 6 50 2
117 -31 l77 -38 -150 -262z m-578 -462 l284 -164 3 -106 c1 -58 1 -106 -2
-106 -4 0 -79 42 -366 208 l-205 118 -3 107 c-1 59 -1 107 2 107 2 0 131 -74
287 -164z m-267 -450 c50 -29 79 -67 100 -130 18 -52 13 -107 -10 -127 -9 -7
-31 -9 -57 -6 -102 13 -200 204 -137 267 26 26 54 25 104 -4z m215 -122 c58
-33 89 -61 107 -96 19 -37 18 -102 -2 -119 -16 -13 -20 -12 -86 16 -15 6 -18
2 -18 -19 0 -28 -10 -32 -41 -16 -17 10 -19 22 -19 135 0 69 3 125 7 125 3 0
27 -12 52 -26z m260 -151 c71 -42 81 -51 81 -76 l0 -28 -54 30 c-62 36 -66 37
-66 14 0 -11 19 -29 49 -45 33 -19 50 -36 53 -53 3 -13 3 -27 1 -29 -3 -2 -27
9 -54 25 -49 28 -49 28 -49 6 0 -17 15 -30 60 -55 52 -28 60 -37 60 -62 l0
-29 -90 52 -90 52 0 123 c0 70 4 122 9 122 6 0 46 -21 90 -47z m-649 -104 c0
-46 2 -50 40 -74 22 -14 42 -25 45 -25 3 0 5 23 5 51 l0 50 30 -21 30 -21 0
-120 c0 -123 -2 -129 -41 -109 -15 8 -19 22 -19 58 0 43 -3 49 -35 70 -47 30
-53 28 -51 -15 1 -40 -11 -50 -36 -31 -14 11 -17 34 -18 133 -1 66 -1 123 -1
128 1 4 12 0 26 -9 21 -14 25 -24 25 -65z m812 9 c9 -7 37 -53 62 -103 l45
-90 0 63 c1 34 4 62 9 62 4 0 18 -7 30 -16 21 -14 22 -22 22 -140 0 -68 -3
-124 -7 -124 -24 1 -53 41 -95 128 l-46 97 -1 -67 c-1 -70 -5 -77 -33 -55 -13
10 -17 36 -20 135 -3 125 0 136 34 110z m-500 -141 c67 -40 108 -112 108 -186
0 -56 -17 -81 -56 -81 -36 0 -76 24 -114 66 -42 48 -60 92 -60 145 0 77 50
100 122 56z m186 -103 c20 -13 22 -24 22 -94 0 -44 5 -90 11 -103 12 -27 55
-55 66 -43 5 4 9 42 10 84 1 42 2 81 2 85 1 5 13 0 27 -11 26 -18 27 -23 26
-111 -1 -96 -10 -121 -44 -121 -51 0 -129 72 -147 137 -13 44 -15 193 -3 193
4 0 18 -7 30 -16z m300 -173 c20 -11 50 -33 65 -49 25 -26 27 -33 17 -52 -12
-22 -12 -22 -50 15 -21 21 -44 35 -52 33 -8 -3 7 -25 44 -62 57 -57 75 -97 63
-136 -9 -30 -53 -25 -107 10 -43 28 -78 68 -78 87 0 4 4 15 9 23 8 11 17 5 48
-29 25 -28 45 -42 57 -40 15 3 7 15 -37 60 -60 60 -81 115 -57 144 16 20 33
19 78 -4z m272 -158 c31 -18 38 -32 31 -69 0 -3 -26 9 -56 26 -52 30 -55 30
-55 11 0 -15 15 -29 50 -49 41 -22 50 -32 50 -54 0 -16 -2 -28 -4 -28 -2 0
-24 12 -50 26 -44 24 -46 25 -46 6 0 -13 18 -31 58 -54 45 -27 58 -40 60 -62
4 -33 7 -34 -97 24 l-81 45 0 128 0 128 53 -29 c28 -17 68 -39 87 -49z"/>
<path d="M11810 11434 c-96 -26 -222 -104 -339 -210 -198 -178 -403 -561 -465
-864 -35 -172 -36 -238 -36 -1646 l0 -1402 -207 -144 c-115 -79 -214 -148
-222 -152 -9 -6 -58 36 -167 145 -132 132 -154 158 -154 184 0 17 -11 46 -25
65 -14 18 -28 49 -31 67 -5 24 -11 33 -23 31 -12 -2 -17 -18 -21 -61 l-5 -59
-26 29 c-14 15 -38 51 -53 78 -45 83 -52 90 -80 77 -33 -15 -68 -84 -68 -136
-1 -59 25 -106 95 -172 34 -31 74 -68 89 -83 15 -14 102 -123 193 -241 92
-118 174 -219 183 -224 42 -24 96 -4 412 150 72 35 70 36 84 -38 6 -31 4 -38
-9 -38 -9 0 -24 -13 -33 -30 -12 -20 -26 -30 -47 -32 -20 -2 -33 -11 -40 -25
-8 -20 -17 -23 -67 -23 -32 0 -58 -1 -58 -2 0 -2 54 -165 119 -363 84 -254
124 -361 135 -363 19 -4 19 -3 6 -112 -6 -47 -15 -254 -19 -460 -8 -308 -7
-378 4 -390 10 -11 16 -95 24 -335 6 -176 16 -450 22 -610 14 -337 9 -374 -66
-532 -33 -70 -59 -109 -109 -160 -65 -66 -72 -83 -60 -130 8 -29 61 -53 117
-53 61 0 189 25 226 45 43 22 79 80 87 143 4 32 10 49 14 41 5 -7 6 -18 3 -26
-8 -21 6 -63 22 -63 8 0 15 6 16 13 0 6 2 48 3 92 2 44 10 102 19 128 10 26
17 76 17 111 0 55 -4 68 -30 101 -16 21 -30 50 -30 64 0 72 23 271 46 396 48
262 63 362 70 474 l7 111 52 0 c29 0 80 3 114 6 35 4 61 3 59 -2 -4 -15 10
-78 82 -364 108 -434 161 -739 153 -890 -2 -47 0 -182 5 -300 10 -235 18 -272
68 -284 39 -10 128 20 163 55 52 52 57 89 32 241 -12 73 -26 176 -30 229 -6
55 -17 111 -26 130 -16 30 -17 56 -9 284 15 425 10 514 -47 885 -25 157 -28
199 -19 214 18 28 27 657 11 801 -14 134 -41 268 -76 371 -14 42 -24 79 -21
81 3 3 63 22 134 43 157 45 190 63 222 121 40 73 34 108 -79 463 -56 176 -109
332 -117 348 -26 49 -96 108 -148 123 -27 8 -83 15 -124 15 -52 0 -83 5 -103
17 -16 10 -29 20 -29 23 0 3 32 22 70 43 l70 38 47 -16 c52 -18 89 -13 144 17
42 24 67 62 77 120 l7 41 168 96 167 96 0 712 c0 464 3 714 10 718 13 8 13 48
0 61 -5 5 -10 332 -12 849 -4 837 -4 840 -26 913 -48 158 -132 271 -237 322
-63 31 -193 37 -275 14z m192 -104 c21 -6 40 -15 43 -21 6 -8 -322 -608 -346
-633 -5 -6 -9 114 -9 297 l0 306 33 17 c76 40 202 55 279 34z m171 -163 c25
-53 62 -197 55 -217 -3 -10 -360 -221 -366 -216 -5 6 272 494 279 491 3 -3 18
-28 32 -58z m-583 -276 c0 -216 -3 -322 -11 -326 -12 -8 -338 205 -339 220 0
16 115 192 167 255 50 60 163 170 175 170 4 0 8 -144 8 -319z m-231 -276 c72
-48 131 -90 131 -94 0 -6 -149 -94 -354 -209 l-59 -33 7 50 c16 118 109 386
131 377 7 -2 72 -44 144 -91z m811 -642 l0 -528 -97 -55 c-53 -30 -119 -68
-147 -83 -28 -16 -78 -45 -111 -65 -33 -20 -63 -36 -67 -34 -5 1 -8 -3 -8 -8
0 -6 -5 -10 -10 -10 -7 0 -9 179 -8 532 3 521 3 533 23 543 23 12 136 78 250
145 98 58 157 90 167 90 5 0 8 -237 8 -527z m-570 -328 c0 -346 -3 -535 -10
-535 -9 0 -54 -25 -327 -186 -50 -30 -96 -54 -102 -54 -8 0 -11 157 -11 525
l0 525 38 24 c42 26 405 236 410 236 1 0 2 -241 2 -535z m570 -979 l0 -484
-42 -24 c-24 -14 -98 -57 -165 -96 -68 -39 -123 -68 -123 -64 0 8 40 35 115
78 28 16 64 37 80 46 17 10 49 28 73 40 l42 22 0 476 c0 421 2 490 17 490 2 0
3 -218 3 -484z m-568 -66 c2 -171 0 -310 -4 -310 -5 0 -8 133 -8 295 0 200 -3
295 -11 295 -12 0 -59 -26 -259 -143 l-145 -84 -3 -109 c-4 -154 -22 -160 -22
-7 l0 121 78 44 c153 88 278 161 312 184 19 12 40 23 47 23 10 1 13 -73 15
-309z m288 -1889 c34 -89 60 -164 58 -165 -1 -1 -41 -17 -87 -35 -92 -37 -101
-35 -101 25 0 17 -4 55 -10 84 -9 48 -7 63 26 168 24 77 39 111 44 101 5 -8
36 -88 70 -178z"/>
<path d="M12015 10403 c-71 -41 -165 -96 -207 -121 l-78 -45 0 -503 c0 -276 3
-505 8 -507 6 -5 148 73 345 188 l67 39 0 513 c0 282 -1 513 -2 513 -2 -1 -61
-35 -133 -77z"/>
<path d="M11550 10136 c-8 -8 -46 -31 -85 -51 -38 -20 -74 -40 -80 -45 -5 -4
-35 -21 -65 -37 -30 -17 -76 -43 -102 -59 l-48 -29 0 -513 c0 -282 3 -511 8
-509 4 3 85 50 180 106 96 55 177 101 181 101 4 0 17 9 29 20 l21 20 -2 502
c-1 332 -5 502 -12 505 -6 2 -17 -3 -25 -11z"/>
<path d="M7280 8857 l1 -692 70 -40 c39 -22 123 -70 186 -107 63 -38 117 -68
119 -68 2 0 44 -25 94 -55 50 -30 92 -55 95 -55 2 0 38 -20 79 -45 42 -25 81
-45 85 -45 5 0 11 -4 13 -8 2 -4 28 -22 58 -39 30 -17 72 -41 93 -53 l37 -22
0 39 c0 37 -2 40 -67 78 -38 22 -70 38 -72 37 -2 -2 -7 1 -10 6 -3 5 -33 24
-66 42 -33 18 -71 40 -85 50 -14 9 -61 36 -105 60 -44 24 -91 51 -105 60 -14
10 -45 28 -70 41 -25 13 -98 56 -163 94 l-117 70 0 297 0 297 188 -108 c103
-59 232 -133 287 -165 55 -31 107 -61 115 -66 67 -41 258 -150 264 -150 3 0 6
13 6 29 0 30 -18 42 -365 241 -125 71 -244 140 -393 227 l-103 60 1 325 0 324
-35 17 -35 17 0 -693z"/>
<path d="M14478 8530 c-28 -29 -30 -35 -26 -93 3 -50 15 -86 60 -182 62 -132
78 -201 78 -335 0 -80 -1 -83 -17 -67 -14 14 -18 35 -18 100 l0 82 -35 17
c-19 9 -54 22 -78 28 -29 7 -60 28 -95 62 -76 74 -146 98 -181 62 -23 -22 -20
-54 9 -108 36 -67 33 -94 -20 -162 -64 -82 -62 -111 10 -178 l54 -51 -14 -60
c-28 -118 -17 -182 37 -215 46 -28 63 -26 140 21 l68 41 0 70 c0 94 -19 204
-39 221 -27 24 -118 49 -168 46 -30 -2 -48 1 -51 9 -7 22 132 19 186 -4 32
-13 33 -13 27 9 -22 78 -122 247 -181 305 -27 28 -31 42 -9 42 21 0 125 -134
160 -208 17 -34 32 -62 35 -62 3 1 19 24 35 53 20 35 38 53 53 55 30 5 28 -3
-13 -51 -53 -62 -60 -102 -35 -200 11 -45 23 -123 27 -174 l6 -92 41 25 c23
14 53 30 67 35 27 10 40 48 70 209 17 93 17 362 0 430 -18 71 -61 166 -101
225 -33 49 -34 71 -1 41 35 -32 100 -172 122 -262 19 -79 21 -108 16 -249 -4
-101 -14 -195 -26 -255 -11 -52 -19 -96 -17 -98 12 -11 57 35 65 67 37 139 52
245 52 385 0 198 -38 339 -117 425 -70 78 -126 91 -176 41z"/>
<path d="M4735 8456 c-51 -51 -40 -136 39 -295 24 -47 46 -99 50 -114 13 -54
25 -224 18 -251 -7 -25 -9 -27 -21 -12 -10 12 -12 35 -8 84 3 37 1 74 -4 83
-9 18 -40 32 -107 49 -29 7 -63 30 -107 70 -68 61 -104 76 -155 65 -44 -10
-47 -40 -12 -116 37 -79 34 -101 -24 -169 -63 -74 -61 -102 11 -167 30 -28 55
-57 55 -66 0 -8 -7 -47 -16 -86 -20 -89 -13 -132 27 -165 51 -43 69 -42 154 6
l77 43 -6 95 c-3 52 -11 117 -18 144 -17 65 -58 88 -169 94 -86 5 -102 16 -39
27 45 8 109 -1 157 -20 l32 -14 -20 51 c-38 98 -72 158 -130 230 -32 40 -59
76 -59 81 0 17 24 5 52 -28 17 -19 34 -32 38 -30 4 2 7 -1 7 -8 0 -7 24 -50
52 -96 28 -46 51 -91 51 -100 1 -9 10 2 22 24 21 42 66 95 80 95 16 0 7 -20
-27 -65 -45 -59 -52 -101 -31 -185 9 -37 20 -111 26 -165 6 -54 12 -100 14
-102 7 -7 126 62 131 77 46 114 70 470 41 602 -19 83 -73 204 -112 251 -18 21
-22 33 -14 35 30 10 118 -147 147 -263 26 -105 21 -353 -10 -502 -12 -62 -21
-113 -19 -113 2 0 16 7 32 16 22 14 31 30 44 86 81 336 46 665 -85 797 -58 57
-123 68 -164 27z"/>
<path d="M8721 8375 c-58 -22 -116 -36 -187 -44 -113 -13 -155 -24 -196 -53
l-28 -19 -10 25 c-18 48 -53 27 -43 -26 4 -23 2 -24 -26 -20 -27 4 -31 1 -31
-18 0 -13 8 -24 20 -27 25 -7 25 -5 -4 -48 -13 -19 -27 -57 -31 -84 -7 -49 1
-148 14 -185 7 -17 9 -16 24 8 14 20 26 26 55 26 49 0 80 -31 90 -90 9 -51 28
-62 42 -25 14 37 12 91 -6 178 -11 55 -12 81 -5 96 17 32 75 44 171 38 93 -7
191 4 254 29 32 12 41 13 48 2 14 -22 36 -103 44 -164 7 -52 9 -55 15 -29 12
52 10 119 -6 178 -14 55 -14 57 10 93 28 41 40 92 30 123 -8 25 -23 26 -72 6
-48 -20 -54 -19 -41 9 14 33 4 56 -24 55 -13 -1 -61 -16 -107 -34z"/>
<path d="M8672 7479 c-29 -9 -31 -11 -17 -25 24 -25 29 -61 11 -90 -23 -34
-60 -47 -126 -42 -43 3 -69 13 -121 46 -36 23 -75 42 -85 42 -10 0 -64 -13
-119 -29 -206 -58 -203 -54 -345 -435 l-70 -190 26 -27 c45 -47 120 -81 190
-87 l64 -5 0 -616 c-1 -573 8 -919 30 -1135 7 -69 6 -96 -5 -125 -25 -63 -45
-164 -45 -231 0 -102 69 -1013 79 -1030 4 -8 4 -26 -1 -39 -4 -13 -11 -63 -15
-110 l-6 -87 59 -60 c33 -33 73 -84 89 -114 54 -99 155 -144 270 -120 89 18
123 58 94 112 -6 11 -56 68 -111 126 -72 78 -108 125 -131 174 l-31 67 -21
-19 c-44 -42 -175 -20 -175 28 0 15 11 17 90 17 67 0 93 4 105 15 11 12 28
135 70 520 30 278 61 564 69 635 9 72 25 270 36 440 12 171 22 314 24 319 1 5
24 -112 51 -261 l49 -271 -22 -73 c-38 -135 -40 -85 21 -928 l12 -164 35 -18
c41 -22 147 -26 172 -6 10 8 20 45 28 107 6 52 41 299 76 549 68 484 71 528
54 796 -6 83 -17 265 -25 405 -9 140 -20 323 -25 405 -5 83 -10 309 -10 503
l0 353 44 18 c49 22 112 74 121 100 6 18 -203 422 -252 489 -43 58 -142 91
-211 71z"/>
<path d="M6890 7220 c-49 -49 -40 -132 29 -278 57 -121 80 -217 81 -339 0 -74
-10 -91 -31 -52 -7 14 -8 45 -4 88 8 81 0 91 -94 117 -51 14 -74 27 -117 70
-79 77 -158 98 -190 49 -15 -23 -14 -28 16 -94 37 -79 35 -103 -9 -153 -42
-49 -62 -94 -55 -123 3 -14 29 -44 56 -67 56 -46 55 -43 29 -188 -13 -70 6
-116 62 -145 l38 -20 77 42 77 41 3 59 c5 83 -16 218 -36 236 -28 24 -109 47
-167 47 -61 0 -74 16 -20 26 32 6 108 -4 162 -21 23 -7 23 -7 9 32 -34 98 -94
195 -168 278 -31 34 -35 45 -13 45 23 0 113 -116 153 -197 20 -40 39 -73 42
-73 3 0 11 15 18 33 14 39 66 92 81 82 7 -4 -2 -23 -24 -52 -51 -67 -60 -105
-41 -178 9 -33 21 -109 28 -170 6 -60 12 -111 14 -113 1 -2 31 13 66 33 l65
35 16 68 c45 189 56 441 24 562 -21 79 -66 177 -103 225 -26 34 -28 55 -4 40
18 -11 74 -105 98 -164 42 -103 55 -202 49 -361 -4 -81 -16 -187 -27 -240 -11
-52 -20 -98 -20 -103 0 -14 59 23 64 40 46 147 70 445 46 577 -35 197 -123
326 -222 326 -25 0 -45 -7 -58 -20z"/>
<path d="M10324 6176 c-72 -32 -70 -128 5 -283 59 -120 81 -216 81 -340 -1
-88 -1 -88 -20 -65 -16 19 -18 33 -13 96 5 70 4 75 -18 89 -13 8 -48 20 -77
27 -41 9 -66 24 -117 71 -78 70 -131 91 -170 65 -32 -21 -32 -53 0 -114 38
-72 34 -100 -32 -176 -52 -62 -47 -99 22 -163 30 -28 55 -55 55 -60 0 -4 -7
-33 -15 -63 -31 -116 -11 -186 62 -217 34 -14 36 -13 114 33 l80 47 -7 90 c-4
49 -12 113 -18 140 -10 47 -15 53 -59 75 -37 20 -62 25 -117 24 -54 0 -70 3
-70 14 0 19 124 19 179 -1 42 -14 42 -14 36 8 -16 57 -101 208 -150 267 -39
45 -52 67 -44 75 19 19 136 -130 181 -233 l20 -46 19 39 c23 46 57 85 76 85
19 0 16 -9 -18 -47 -17 -20 -28 -42 -25 -50 3 -8 2 -11 -4 -8 -5 3 -13 -11
-19 -30 -8 -29 -5 -53 10 -113 11 -42 23 -121 26 -174 3 -54 8 -98 10 -98 2 0
22 11 44 25 22 14 50 30 63 35 19 7 27 24 44 97 77 319 50 582 -78 768 -32 46
-34 69 -5 45 28 -23 85 -131 112 -209 45 -133 43 -419 -3 -602 -18 -74 -19
-73 16 -52 20 11 34 30 40 53 79 296 73 580 -16 752 -49 94 -139 150 -200 124z"/>
<path d="M8661 3650 c-8 -14 -20 -56 -27 -95 -30 -167 -21 -181 131 -200 75
-9 128 -21 168 -39 84 -38 185 -53 244 -38 52 14 98 44 114 73 18 35 -12 64
-103 99 -118 46 -195 86 -258 135 -55 43 -56 43 -79 24 -29 -24 -117 -26 -148
-4 -12 8 -23 28 -25 43 l-3 27 -14 -25z"/>
</g>
</svg>
